HIERARCHY
ROOT Hips
{
	OFFSET -211.153198 91.653587 -35.738949
	CHANNELS 6 Xposition Yposition Zposition Zrotation Yrotation Xrotation 
	JOINT LeftUpLeg
	{
		OFFSET 0.103455 1.857827 10.548507
		CHANNELS 3 Zrotation Yrotation Xrotation
		JOINT LeftLeg
		{
			OFFSET 43.500000 -0.000031 0.000008
			CHANNELS 3 Zrotation Yrotation Xrotation
			JOINT LeftFoot
			{
				OFFSET 42.372192 0.000011 -0.000014
				CHANNELS 3 Zrotation Yrotation Xrotation
				JOINT LeftToe
				{
					OFFSET 17.299997 -0.000002 0.000013
					CHANNELS 3 Zrotation Yrotation Xrotation
					End Site
					{
						OFFSET 0.000000 0.000000 0.000000
					}
				}
			}
		}
	}
	JOINT RightUpLeg
	{
		OFFSET 0.103457 1.857826 -10.548499
		CHANNELS 3 Zrotation Yrotation Xrotation
		JOINT RightLeg
		{
			OFFSET 43.500046 -0.000019 0.000015
			CHANNELS 3 Zrotation Yrotation Xrotation
			JOINT RightFoot
			{
				OFFSET 42.372261 -0.000004 0.000013
				CHANNELS 3 Zrotation Yrotation Xrotation
				JOINT RightToe
				{
					OFFSET 17.299992 -0.000006 0.000004
					CHANNELS 3 Zrotation Yrotation Xrotation
					End Site
					{
						OFFSET 0.000000 0.000000 0.000000
					}
				}
			}
		}
	}
	JOINT Spine
	{
		OFFSET 6.901968 -2.603730 -0.000002
		CHANNELS 3 Zrotation Yrotation Xrotation
		JOINT Spine1
		{
			OFFSET 12.588100 -0.000001 0.000009
			CHANNELS 3 Zrotation Yrotation Xrotation
			JOINT Spine2
			{
				OFFSET 12.343201 0.000005 -0.000005
				CHANNELS 3 Zrotation Yrotation Xrotation
				JOINT Neck
				{
					OFFSET 25.832893 -0.000008 -0.000006
					CHANNELS 3 Zrotation Yrotation Xrotation
					JOINT Head
					{
						OFFSET 11.766606 0.000005 0.000008
						CHANNELS 3 Zrotation Yrotation Xrotation
						End Site
						{
							OFFSET 0.000000 0.000000 0.000000
						}
					}
				}
				JOINT LeftShoulder
				{
					OFFSET 19.745903 -1.480373 6.000100
					CHANNELS 3 Zrotation Yrotation Xrotation
					JOINT LeftArm
					{
						OFFSET 11.284123 -0.000007 -0.000024
						CHANNELS 3 Zrotation Yrotation Xrotation
						JOINT LeftForeArm
						{
							OFFSET 33.000053 0.000004 0.000036
							CHANNELS 3 Zrotation Yrotation Xrotation
							JOINT LeftHand
							{
								OFFSET 25.200006 0.000021 -0.000003
								CHANNELS 3 Zrotation Yrotation Xrotation
								End Site
								{
									OFFSET 0.000000 0.000000 0.000000
								}
							}
						}
					}
				}
				JOINT RightShoulder
				{
					OFFSET 19.746101 -1.480381 -6.000079
					CHANNELS 3 Zrotation Yrotation Xrotation
					JOINT RightArm
					{
						OFFSET 11.284133 -0.000015 -0.000008
						CHANNELS 3 Zrotation Yrotation Xrotation
						JOINT RightForeArm
						{
							OFFSET 33.000099 0.000016 0.000006
							CHANNELS 3 Zrotation Yrotation Xrotation
							JOINT RightHand
							{
								OFFSET 25.199781 0.000142 0.000425
								CHANNELS 3 Zrotation Yrotation Xrotation
								End Site
								{
									OFFSET 0.000000 0.000000 0.000000
								}
							}
						}
					}
				}
			}
		}
	}
}
MOTION
Frames: 14
Frame Time: 0.033333
103.214104 85.614807 72.689583 92.478186 4.586859 93.911467 153.409846 -2.449209 174.665559 -24.632114 -2.603739 -2.236029 58.150100 2.449056 1.496101 21.454551 0.003090 -0.000000 -172.469380 8.031987 -174.766017 -35.427269 2.415672 2.852192 96.368683 -1.390932 6.540143 21.454560 -0.003112 -0.000015 11.115004 -0.754209 0.580635 12.210910 -1.565535 1.078402 11.892752 -1.558857 1.087844 -14.897170 -10.756596 -6.722484 -21.717739 18.039759 -17.661662 171.477896 -83.759361 6.976249 -33.549080 44.309401 5.199826 -55.088368 -17.533840 2.092051 7.486400 -0.008891 48.770498 -172.861720 77.273495 8.754172 -25.124817 -45.419952 -16.649899 -58.785061 16.364309 -2.178448 4.001214 -5.084541 -23.211336 
102.479103 85.657631 70.687149 91.602358 4.901552 94.136119 154.325461 -3.339399 174.347723 -20.632268 -2.238004 -1.795997 55.412625 1.928416 0.985930 21.454550 0.003095 -0.000003 -172.512806 6.829297 -173.950493 -33.782874 3.089779 3.373207 98.056361 -1.897742 5.902739 21.454560 -0.003121 -0.000020 10.972240 -0.313722 0.714949 11.927552 -0.699550 1.393704 11.609537 -0.690992 1.397912 -15.194282 -11.408708 -6.708369 -22.620799 17.786234 -17.954952 -175.378576 -81.469260 -6.269191 -31.243184 46.318986 3.373943 -56.041907 -18.206738 2.171625 6.941031 -1.790561 50.034534 -170.070481 74.959632 11.597828 -24.354614 -44.024100 -16.680198 -56.425986 16.511152 -2.102011 4.219205 -4.189874 -21.931603 
101.861099 85.870888 68.483833 90.878939 4.739876 94.102986 154.628776 -4.176697 173.656931 -17.288795 -1.728247 -1.837576 56.254763 0.777412 -1.444312 21.454551 0.003099 -0.000001 -174.103202 6.685702 -175.398643 -33.693934 5.415394 3.481476 98.326980 -2.143641 4.594029 21.454557 -0.003104 -0.000018 10.781485 0.119294 0.814145 11.551296 0.156592 1.636095 11.233335 0.166605 1.635135 -14.977792 -11.182069 -6.602185 -23.745866 16.610632 -17.464958 -166.567700 -78.786335 -15.208398 -29.193861 49.009988 1.410154 -56.101026 -18.756188 2.211115 5.678965 -3.891865 49.259372 -169.491581 74.046436 12.189961 -24.243768 -44.034773 -15.847994 -51.810079 17.092586 -1.979923 3.279697 -2.808264 -19.621976 
101.423798 86.360558 66.521004 90.496059 4.839589 94.299292 155.478533 -5.161492 172.489625 -14.663404 -2.520294 -2.850054 60.045566 1.459807 -1.732991 21.454553 0.003091 0.000000 -175.026029 6.879005 -173.456738 -33.290690 5.989548 2.246965 97.171804 -1.379796 3.576925 21.454558 -0.003109 -0.000016 10.642289 0.454134 0.918928 11.278732 0.816382 1.877780 10.960779 0.827848 1.872825 -13.571799 -10.442832 -6.939472 -25.385288 15.501481 -17.259446 -163.758006 -76.436305 -18.087722 -26.708997 52.063517 -0.332392 -55.528106 -18.750468 2.190151 5.161187 -6.400004 48.094985 -167.645805 73.438454 14.083684 -24.299759 -44.976352 -13.984348 -46.046137 17.232089 -1.803969 3.504791 -0.890091 -16.351365 
101.152702 87.075890 64.929466 90.536207 5.354763 94.156016 156.908706 -5.865906 171.633857 -13.208788 -3.063256 -6.998255 64.061348 3.716675 -3.885084 21.454553 0.003091 -0.000000 -175.037736 6.779207 -171.111538 -32.037190 4.894644 1.121976 95.310434 -0.567731 3.264212 21.454555 -0.003104 -0.000017 10.512856 0.593309 1.082610 11.023843 1.080629 2.216919 10.705949 1.094149 2.210352 -11.556838 -9.475805 -7.444184 -25.888580 14.882953 -17.128222 -163.272872 -74.922722 -18.597429 -23.081560 55.357092 -0.117147 -53.809607 -18.965508 2.144025 4.735750 -7.428368 43.830024 -166.117700 72.359448 15.657065 -23.675341 -46.039624 -12.088540 -39.984119 16.929812 -1.611019 4.576190 1.547601 -13.588170 
101.043602 87.957489 63.491859 91.010604 5.867529 94.057804 157.613309 -5.608194 169.478645 -15.613030 -1.898585 -12.118982 64.714389 5.456086 -9.246349 21.454551 0.003093 -0.000000 -174.680722 6.716002 -171.804925 -29.910969 4.637080 1.753145 93.062577 -0.918565 3.325863 21.454557 -0.003108 -0.000018 10.319959 0.580689 1.173929 10.638532 1.050870 2.396376 10.320679 1.065453 2.389997 -10.076466 -8.546606 -7.664327 -25.265894 14.311769 -16.616867 -162.180602 -74.546809 -19.719687 -18.303160 58.699670 2.312174 -51.435863 -18.648575 2.041362 5.729729 -7.359652 38.268139 -164.625509 71.295994 17.198613 -22.557765 -47.496446 -10.031314 -34.207278 16.200717 -1.421580 5.874632 4.280325 -10.845471 
101.010300 88.684174 62.248310 91.363418 6.319720 94.413937 157.637146 -5.829697 166.720519 -22.127103 -0.539953 -13.509878 66.806961 6.728157 -8.812229 21.454551 0.003092 0.000001 -174.127326 6.822909 -172.174343 -27.858357 4.894848 2.313746 90.859766 -1.260286 3.227334 21.454558 -0.003117 -0.000018 10.025468 0.601698 1.146592 10.049805 1.101473 2.341151 9.731946 1.115716 2.334478 -9.077275 -8.220873 -7.859170 -24.171034 13.813048 -16.257180 -161.516256 -74.612426 -20.399316 -12.795417 60.867258 8.483987 -47.175314 -18.435510 1.889263 7.689999 -5.728238 31.218923 -162.469901 70.700121 19.424216 -20.272005 -49.366258 -8.640981 -30.089248 15.270498 -1.274973 7.982102 5.939835 -9.587174 
101.062698 89.141296 61.141640 91.415143 6.794922 94.731138 157.629797 -6.702301 165.552953 -30.646584 0.641837 -11.659372 69.341078 6.076696 -7.055434 21.454551 0.003086 -0.000001 -173.858121 6.966000 -171.557796 -26.772031 5.009696 2.151685 89.019078 -1.135287 3.016466 21.454558 -0.003109 -0.000017 9.698527 0.659078 1.112059 9.396938 1.225626 2.274066 9.079038 1.239470 2.266623 -8.447003 -8.198185 -8.150647 -23.157352 13.600420 -16.251773 -161.202956 -74.587715 -20.720496 -7.520536 61.755791 15.262459 -42.111381 -17.692628 1.690831 9.354219 -2.379690 27.401244 -160.758420 70.112315 21.195694 -16.588255 -50.523531 -10.378452 -27.551404 14.489613 -1.177769 10.101383 6.629763 -7.157113 
101.116997 89.384689 60.076790 91.060342 7.149579 94.775261 158.222725 -7.984887 167.863401 -38.512209 0.162885 -9.326628 71.824487 4.782884 -6.165251 21.454551 0.003084 0.000001 -174.127094 6.750406 -171.919618 -26.395119 5.346493 2.338654 87.575422 -1.263050 2.846573 21.454558 -0.003111 -0.000017 9.315398 0.753311 1.088336 8.632491 1.423333 2.229946 8.314550 1.436911 2.221327 -8.327895 -7.616025 -8.522883 -21.124279 12.771546 -15.812568 -160.944979 -74.648790 -20.983796 -3.127221 62.022195 21.378562 -36.536482 -16.524818 1.469887 10.966156 2.616958 27.974426 -158.616500 69.521408 23.414327 -12.507413 -50.830080 -14.656649 -26.000901 13.775651 -1.105695 11.118340 5.156033 -5.908888 
101.229797 89.500511 58.961670 90.527368 7.442526 94.324981 159.749669 -9.318808 170.605175 -44.762123 -0.882829 -6.784193 75.037134 3.429130 -5.043401 21.454550 0.003082 -0.000001 -174.838540 6.493888 -173.142782 -26.483973 5.878014 2.677311 86.525342 -1.504499 2.719001 21.454562 -0.003107 -0.000017 8.940477 0.845700 1.051022 7.884157 1.617873 2.157334 7.566174 1.631001 2.147527 -8.608413 -6.862093 -8.687072 -18.524373 11.812413 -15.053693 -160.664928 -74.710303 -21.269825 0.343476 62.238924 26.047550 -30.997051 -15.329111 1.270461 11.792435 7.487558 31.954135 -156.894199 69.028118 25.201381 -8.769305 -50.262618 -19.796938 -25.285480 13.046794 -1.047478 10.628359 2.389928 -6.910516 
101.375801 89.536331 57.728661 90.025711 7.772553 93.763498 162.226350 -10.135796 173.249756 -48.890829 -1.826065 -5.215825 78.097476 2.566663 -4.548928 21.454555 0.003096 0.000001 -175.664447 6.306003 -173.631455 -26.815350 6.059588 2.559584 85.926519 -1.431185 2.615731 21.454560 -0.003111 -0.000017 8.646901 0.905049 0.880497 7.295729 1.752848 1.816389 6.977642 1.763919 1.805771 -8.821866 -5.743265 -8.294914 -16.574530 11.187583 -13.896358 -160.491127 -74.693993 -21.447900 3.312726 62.357674 28.411686 -26.236966 -13.876618 1.090291 12.396154 10.096056 37.404981 -156.303292 68.631885 25.819828 -5.945046 -49.351614 -24.868335 -25.438748 12.975230 -1.045327 9.621478 -0.976173 -9.807658 
101.530502 89.506027 56.407082 89.533521 8.110106 93.156411 165.597636 -10.458698 174.677949 -50.738842 -1.701294 -4.172939 80.315136 1.823502 -4.843875 21.454553 0.003099 0.000000 -176.458292 6.050795 -174.349553 -27.012910 6.239260 2.608031 85.674211 -1.477336 2.531113 21.454560 -0.003106 -0.000017 8.440070 0.925130 0.629403 6.878531 1.811247 1.312698 6.560361 1.819273 1.301748 -9.239123 -4.471336 -7.751757 -14.955268 10.476129 -12.589836 -161.384092 -74.940815 -20.530512 6.161474 62.345413 30.494592 -23.557886 -12.841897 0.982625 13.730304 10.841815 40.150184 -155.559307 68.007053 26.602441 -4.574786 -48.345062 -28.500750 -26.163215 12.978699 -1.057300 8.816868 -3.220063 -13.612522 
101.708603 89.409332 54.955681 88.928715 8.188654 92.520404 169.422993 -10.541594 175.524687 -50.526751 -1.308824 -3.748654 81.877992 1.565956 -4.852402 21.454553 0.003086 0.000000 -177.563868 5.639011 -174.910367 -27.191676 6.239718 2.594662 85.593117 -1.480357 2.456713 21.454555 -0.003116 -0.000016 8.251821 0.945871 0.352517 6.497833 1.870477 0.757500 6.179588 1.875152 0.746196 -10.060081 -3.837965 -7.174824 -13.269578 9.946756 -11.497549 -162.466226 -75.116023 -19.421006 8.605530 62.079726 32.700600 -23.377084 -12.902300 0.983898 14.642800 11.397835 42.613134 -154.584489 67.609106 27.619789 -4.013790 -47.945175 -29.872423 -27.120449 13.020330 -1.076098 8.624599 -4.534525 -16.395456 
101.897301 89.279404 53.421612 88.130184 8.417133 92.052304 173.865689 -10.479002 176.876860 -48.369081 -1.228953 -3.356428 82.548492 1.176875 -5.451553 21.454550 0.003083 0.000000 -178.397274 4.936999 -175.092104 -27.115730 6.027609 2.521197 85.423393 -1.420535 2.463395 21.454558 -0.003113 -0.000015 8.172654 1.006049 0.064692 6.335065 2.006996 0.184193 6.016746 2.008217 0.172056 -10.833657 -3.246268 -6.621582 -12.080768 9.315462 -10.471897 -162.806261 -75.407508 -19.070119 8.362336 61.607719 34.341696 -24.364852 -13.181210 1.016240 14.516329 10.691445 42.788058 -154.293618 67.273566 27.928925 -3.626888 -48.244170 -29.298605 -27.755430 13.503102 -1.118168 8.154617 -4.705815 -17.363287 
